<svg width="228" height="128" viewBox="0 0 228 128" fill="none" xmlns="http://www.w3.org/2000/svg">
<g filter="url(#filter0_d)">
<mask id="path-2-inside-1" fill="white">
<path fill-rule="evenodd" clip-rule="evenodd" d="M66.6075 31.2252C75.7115 24.0439 93.1777 19.1854 113.229 19.1854C133.28 19.1854 150.747 24.0439 159.851 31.2252H195.912C200.724 31.2252 204.625 35.1262 204.625 39.9384V92.0748C204.625 96.887 200.724 100.788 195.912 100.788H32.3119C27.4997 100.788 23.5986 96.887 23.5986 92.0748V39.9384C23.5986 35.1262 27.4997 31.2252 32.3119 31.2252H66.6075Z"/>
</mask>
<path d="M66.6075 31.2252V33.2252H67.3014L67.8462 32.7954L66.6075 31.2252ZM159.851 31.2252L158.612 32.7954L159.157 33.2252H159.851V31.2252ZM67.8462 32.7954C76.4473 26.0109 93.3888 21.1854 113.229 21.1854V17.1854C92.9665 17.1854 74.9758 22.0769 65.3689 29.6549L67.8462 32.7954ZM113.229 21.1854C133.069 21.1854 150.011 26.0109 158.612 32.7954L161.089 29.6549C151.482 22.0769 133.492 17.1854 113.229 17.1854V21.1854ZM159.851 33.2252H195.912V29.2252H159.851V33.2252ZM195.912 33.2252C199.62 33.2252 202.625 36.2308 202.625 39.9384H206.625C206.625 34.0217 201.829 29.2252 195.912 29.2252V33.2252ZM202.625 39.9384V92.0748H206.625V39.9384H202.625ZM202.625 92.0748C202.625 95.7824 199.62 98.788 195.912 98.788V102.788C201.829 102.788 206.625 97.9916 206.625 92.0748H202.625ZM195.912 98.788H32.3119V102.788H195.912V98.788ZM32.3119 98.788C28.6043 98.788 25.5986 95.7824 25.5986 92.0748H21.5986C21.5986 97.9915 26.3951 102.788 32.3119 102.788V98.788ZM25.5986 92.0748V39.9384H21.5986V92.0748H25.5986ZM25.5986 39.9384C25.5986 36.2308 28.6043 33.2252 32.3119 33.2252V29.2252C26.3951 29.2252 21.5986 34.0217 21.5986 39.9384H25.5986ZM32.3119 33.2252H66.6075V29.2252H32.3119V33.2252Z" fill="#F0DDBA" fill-opacity="0.5" mask="url(#path-2-inside-1)"/>
</g>
<path d="M43.0835 51.9681C45.3777 51.9681 47.2681 52.7028 48.7546 54.1721C50.2411 55.6328 50.9843 57.5103 50.9843 59.8045V62.9107C50.9843 65.2135 50.2411 67.0953 48.7546 68.556C47.2681 70.0082 45.3777 70.7343 43.0835 70.7343H34.6413V68.4787L36.6391 68.092V54.6232L34.6413 54.2365V51.9681H36.6391H43.0835ZM40.4026 54.8681V67.8472H42.8902C44.2392 67.8472 45.2961 67.3917 46.0608 66.4809C46.8256 65.5701 47.2079 64.3801 47.2079 62.9107V59.7787C47.2079 58.3266 46.8256 57.1451 46.0608 56.2343C45.2961 55.3235 44.2392 54.8681 42.8902 54.8681H40.4026ZM70.1274 61.493C70.1274 64.2426 69.3411 66.5153 67.7687 68.3112C66.1963 70.107 64.1383 71.0049 61.5949 71.0049C59.0601 71.0049 57.0108 70.107 55.447 68.3112C53.8917 66.5153 53.1141 64.2426 53.1141 61.493V61.2094C53.1141 58.477 53.8917 56.2085 55.447 54.4041C57.0022 52.5997 59.0473 51.6974 61.5821 51.6974C64.1255 51.6974 66.1834 52.5997 67.7558 54.4041C69.3368 56.2085 70.1274 58.477 70.1274 61.2094V61.493ZM66.3767 61.1836C66.3767 59.2417 65.9729 57.665 65.1652 56.4534C64.3575 55.2419 63.1631 54.6361 61.5821 54.6361C60.001 54.6361 58.8196 55.2376 58.0376 56.4405C57.2643 57.6435 56.8776 59.2245 56.8776 61.1836V61.493C56.8776 63.4692 57.2686 65.0632 58.0505 66.2747C58.841 67.4777 60.0225 68.0792 61.5949 68.0792C63.1846 68.0792 64.3789 67.4777 65.178 66.2747C65.9772 65.0632 66.3767 63.4692 66.3767 61.493V61.1836ZM96.0757 54.2365L94.529 54.4299L90.7268 70.7343H87.2339L83.7926 58.3481H83.7153L80.274 70.7343H76.7811L72.9531 54.4299L71.4193 54.2365V51.9681H78.3277V54.2365L76.6135 54.533L78.766 64.8183L78.8433 64.8312L82.362 51.9681H85.1331L88.6775 64.8312L88.7548 64.8183L90.8944 54.533L89.1801 54.2365V51.9681H96.0757V54.2365ZM116.495 51.9681V54.2365L114.484 54.6232V70.7343H110.733L103.155 58.1032L103.077 58.1161V68.092L105.088 68.4787V70.7343H97.3161V68.4787L99.3139 68.092V54.6232L97.3161 54.2365V51.9681H99.3139H103.077L110.656 64.5992L110.733 64.5863V54.6232L108.723 54.2365V51.9681H114.484H116.495ZM134.362 51.9681V56.969H131.475L131.32 54.8681H127.866V68.092L129.876 68.4787V70.7343H122.092V68.4787L124.102 68.092V54.8681H120.661L120.506 56.969H117.632V51.9681H134.362ZM152.525 61.493C152.525 64.2426 151.739 66.5153 150.166 68.3112C148.594 70.107 146.536 71.0049 143.993 71.0049C141.458 71.0049 139.409 70.107 137.845 68.3112C136.29 66.5153 135.512 64.2426 135.512 61.493V61.2094C135.512 58.477 136.29 56.2085 137.845 54.4041C139.4 52.5997 141.445 51.6974 143.98 51.6974C146.523 51.6974 148.581 52.5997 150.154 54.4041C151.735 56.2085 152.525 58.477 152.525 61.2094V61.493ZM148.774 61.1836C148.774 59.2417 148.371 57.665 147.563 56.4534C146.755 55.2419 145.561 54.6361 143.98 54.6361C142.399 54.6361 141.217 55.2376 140.435 56.4405C139.662 57.6435 139.275 59.2245 139.275 61.1836V61.493C139.275 63.4692 139.666 65.0632 140.448 66.2747C141.239 67.4777 142.42 68.0792 143.993 68.0792C145.582 68.0792 146.777 67.4777 147.576 66.2747C148.375 65.0632 148.774 63.4692 148.774 61.493V61.1836ZM178.473 54.2365L176.927 54.4299L173.125 70.7343H169.632L166.19 58.3481H166.113L162.672 70.7343H159.179L155.351 54.4299L153.817 54.2365V51.9681H160.726V54.2365L159.011 54.533L161.164 64.8183L161.241 64.8312L164.76 51.9681H167.531L171.075 64.8312L171.153 64.8183L173.292 54.533L171.578 54.2365V51.9681H178.473V54.2365ZM198.892 51.9681V54.2365L196.882 54.6232V70.7343H193.131L185.553 58.1032L185.475 58.1161V68.092L187.486 68.4787V70.7343H179.714V68.4787L181.712 68.092V54.6232L179.714 54.2365V51.9681H181.712H185.475L193.054 64.5992L193.131 64.5863V54.6232L191.121 54.2365V51.9681H196.882H198.892ZM62.0961 78.9614H59.2734L58.7836 76.3837C58.4571 76.1774 57.9802 75.997 57.353 75.8423C56.7257 75.6877 56.0598 75.6103 55.3552 75.6103C54.3241 75.6103 53.525 75.8294 52.9579 76.2677C52.3994 76.6973 52.1201 77.2558 52.1201 77.9432C52.1201 78.5791 52.4123 79.1032 52.9966 79.5156C53.5894 79.9195 54.6077 80.3491 56.0512 80.8045C58.122 81.3802 59.6902 82.1407 60.7556 83.0858C61.8297 84.031 62.3667 85.2727 62.3667 86.8107C62.3667 88.4175 61.7309 89.6849 60.4592 90.6129C59.1875 91.5409 57.5119 92.0049 55.4325 92.0049C53.946 92.0049 52.6013 91.7686 51.3983 91.296C50.204 90.8234 49.2072 90.1704 48.4081 89.3369V85.4187H51.321L51.7206 88.0867C52.0986 88.396 52.6099 88.6538 53.2543 88.86C53.9074 89.0577 54.6334 89.1565 55.4325 89.1565C56.4637 89.1565 57.2456 88.946 57.7783 88.5249C58.3196 88.1039 58.5903 87.5411 58.5903 86.8365C58.5903 86.1147 58.3325 85.5347 57.817 85.0965C57.31 84.6583 56.4164 84.2458 55.1361 83.8592C52.9106 83.2147 51.2265 82.45 50.0837 81.565C48.9409 80.6799 48.3695 79.4684 48.3695 77.9303C48.3695 76.4094 49.0139 75.1678 50.3028 74.2054C51.5917 73.2345 53.2114 72.7361 55.1619 72.7103C56.6054 72.7103 57.9201 72.9294 59.1059 73.3677C60.2916 73.8059 61.2884 74.3902 62.0961 75.1205V78.9614ZM80.5044 72.9681V77.969H77.6173L77.4627 75.8681H74.0084V89.092L76.0191 89.4787V91.7343H68.2342V89.4787L70.2449 89.092V75.8681H66.8036L66.6489 77.969H63.7747V72.9681H80.5044ZM81.8608 75.2365V72.9681H89.6328V75.2365L87.6221 75.6232V89.092L89.6328 89.4787V91.7343H81.8608V89.4787L83.8715 89.092V75.6232L81.8608 75.2365ZM109.317 77.853L109.24 77.8401L104.213 91.7343H101.687L96.6861 77.8916L96.6088 77.9045L96.9696 86.1405V89.092L98.9803 89.4787V91.7343H91.2083V89.4787L93.2061 89.092V75.6232L91.2083 75.2365V72.9681H93.2061H98.1167L102.899 86.7978H102.976L107.796 72.9681H114.73V75.2365L112.72 75.6232V89.092L114.73 89.4787V91.7343H106.958V89.4787L108.956 89.092V86.1405L109.317 77.853ZM123.769 72.9681V75.2365L121.758 75.6232V85.4187C121.758 86.6561 122.089 87.584 122.75 88.2027C123.421 88.8128 124.336 89.1178 125.496 89.1178C126.673 89.1178 127.597 88.8128 128.267 88.2027C128.937 87.5926 129.272 86.6646 129.272 85.4187V75.6232L127.274 75.2365V72.9681H135.046V75.2365L133.036 75.6232V85.4187C133.036 87.5239 132.34 89.1479 130.948 90.2907C129.564 91.4335 127.747 92.0049 125.496 92.0049C123.253 92.0049 121.44 91.4335 120.057 90.2907C118.682 89.1479 117.994 87.5239 117.994 85.4187V75.6232L115.997 75.2365V72.9681H117.994H121.758H123.769ZM136.3 91.7343V89.4787L138.297 89.092V75.6232L136.3 75.2365V72.9681H138.297H142.061H144.072V75.2365L142.061 75.6232V88.8472H147.358L147.539 86.4885H150.413V91.7343H136.3ZM158.497 72.9681V75.2365L156.487 75.6232V85.4187C156.487 86.6561 156.817 87.584 157.479 88.2027C158.149 88.8128 159.064 89.1178 160.224 89.1178C161.402 89.1178 162.325 88.8128 162.996 88.2027C163.666 87.5926 164.001 86.6646 164.001 85.4187V75.6232L162.003 75.2365V72.9681H169.775V75.2365L167.764 75.6232V85.4187C167.764 87.5239 167.068 89.1479 165.676 90.2907C164.293 91.4335 162.476 92.0049 160.224 92.0049C157.982 92.0049 156.169 91.4335 154.785 90.2907C153.411 89.1479 152.723 87.5239 152.723 85.4187V75.6232L150.725 75.2365V72.9681H152.723H156.487H158.497ZM185.283 78.9614H182.461L181.971 76.3837C181.644 76.1774 181.168 75.997 180.54 75.8423C179.913 75.6877 179.247 75.6103 178.543 75.6103C177.511 75.6103 176.712 75.8294 176.145 76.2677C175.587 76.6973 175.307 77.2558 175.307 77.9432C175.307 78.5791 175.6 79.1032 176.184 79.5156C176.777 79.9195 177.795 80.3491 179.239 80.8045C181.309 81.3802 182.877 82.1407 183.943 83.0858C185.017 84.031 185.554 85.2727 185.554 86.8107C185.554 88.4175 184.918 89.6849 183.647 90.6129C182.375 91.5409 180.699 92.0049 178.62 92.0049C177.133 92.0049 175.789 91.7686 174.586 91.296C173.391 90.8234 172.395 90.1704 171.595 89.3369V85.4187H174.508L174.908 88.0867C175.286 88.396 175.797 88.6538 176.442 88.86C177.095 89.0577 177.821 89.1565 178.62 89.1565C179.651 89.1565 180.433 88.946 180.966 88.5249C181.507 88.1039 181.778 87.5411 181.778 86.8365C181.778 86.1147 181.52 85.5347 181.004 85.0965C180.497 84.6583 179.604 84.2458 178.323 83.8592C176.098 83.2147 174.414 82.45 173.271 81.565C172.128 80.6799 171.557 79.4684 171.557 77.9303C171.557 76.4094 172.201 75.1678 173.49 74.2054C174.779 73.2345 176.399 72.7361 178.349 72.7103C179.793 72.7103 181.107 72.9294 182.293 73.3677C183.479 73.8059 184.476 74.3902 185.283 75.1205V78.9614Z" fill="#FF8A00"/>
<path d="M89.4829 32.2623C90.9405 31.9934 92.1299 32.0671 93.0512 32.4836C93.9725 32.9001 94.5373 33.6726 94.7455 34.8012C94.8512 35.374 94.7928 35.9155 94.5702 36.4257C94.3523 36.9292 93.975 37.3478 93.4384 37.6814C94.2107 37.7031 94.8293 37.9408 95.2942 38.3946C95.7647 38.8473 96.0633 39.4168 96.1899 40.103C96.4086 41.2883 96.1832 42.2594 95.5135 43.0163C94.8428 43.7676 93.7901 44.2756 92.3552 44.5403L86.2641 45.6641L85.9895 44.1754L87.261 43.6769L85.6208 34.787L84.2551 34.775L83.9788 33.2778L85.2974 33.0345L89.4829 32.2623ZM89.056 39.4839L89.7152 43.0569L92.0036 42.6347C92.6615 42.5133 93.1373 42.2789 93.4309 41.9315C93.7235 41.5785 93.818 41.1212 93.7144 40.5597C93.6024 39.9529 93.3697 39.5179 93.0162 39.2547C92.6616 38.9858 92.1667 38.91 91.5316 39.0272L89.056 39.4839ZM88.7389 37.7655L90.5254 37.4359C91.189 37.3135 91.6743 37.0832 91.9814 36.745C92.2884 36.4069 92.3938 35.9769 92.2976 35.4552C92.1919 34.8824 91.9324 34.4933 91.5192 34.2881C91.1117 34.0818 90.5507 34.0445 89.8361 34.1764L88.1347 34.4903L88.7389 37.7655Z" fill="#E76127"/>
<path d="M96.0878 39.132C95.9398 37.7442 96.2058 36.5675 96.8858 35.6018C97.5709 34.6297 98.5988 34.0706 99.9694 33.9245C101.346 33.7777 102.468 34.1046 103.336 34.9052C104.21 35.7052 104.722 36.8019 104.87 38.1954L104.89 38.376C105.039 39.7753 104.771 40.9581 104.085 41.9243C103.404 42.8843 102.382 43.437 101.017 43.5826C99.6346 43.73 98.5069 43.4065 97.6334 42.6123C96.7651 41.8117 96.2563 40.7118 96.1071 39.3126L96.0878 39.132ZM98.6188 39.0447C98.7093 39.8935 98.9312 40.56 99.2844 41.0443C99.6371 41.5229 100.146 41.7267 100.811 41.6558C101.459 41.5867 101.905 41.2782 102.148 40.7302C102.397 40.1817 102.476 39.486 102.386 38.643L102.367 38.4623C102.279 37.6366 102.055 36.9789 101.696 36.4895C101.336 36.0001 100.829 35.7902 100.176 35.8599C99.522 35.9296 99.0739 36.2413 98.8313 36.795C98.5888 37.3486 98.5115 38.0383 98.5996 38.8641L98.6188 39.0447Z" fill="#E76127"/>
<path d="M111.71 41.5139C111.429 41.9649 111.073 42.3183 110.639 42.574C110.212 42.8294 109.716 42.9695 109.151 42.9943C108.166 43.0376 107.38 42.7574 106.794 42.1539C106.207 41.5447 105.884 40.5746 105.826 39.2437L105.657 35.3806L104.617 35.1664L104.55 33.6454L105.578 33.6002L108.102 33.4895L108.35 39.1502C108.38 39.8301 108.514 40.3149 108.752 40.6046C108.995 40.8884 109.342 41.0204 109.791 41.0007C110.189 40.9832 110.529 40.9048 110.811 40.7654C111.099 40.62 111.33 40.4222 111.504 40.1722L111.283 35.1337L110.165 34.923L110.098 33.4019L111.205 33.3534L113.728 33.2426L114.061 40.8219L115.204 41.0315L115.271 42.5439L111.926 42.6907L111.71 41.5139Z" fill="#E76127"/>
<path d="M115.65 30.6692L115.661 29.1467L119.537 29.1757L119.449 40.897L120.667 41.1656L120.656 42.6794L115.69 42.6423L115.701 41.1285L116.923 40.8781L116.997 30.9388L115.65 30.6692Z" fill="#E76127"/>
<path d="M126.426 41.8134C126.111 42.2309 125.746 42.5421 125.332 42.7469C124.923 42.9519 124.462 43.0418 123.95 43.0166C122.798 42.9598 121.923 42.4952 121.325 41.6227C120.733 40.7505 120.471 39.6232 120.539 38.2408L120.548 38.0593C120.62 36.5847 120.999 35.411 121.683 34.5382C122.367 33.6653 123.287 33.2575 124.445 33.3145C124.912 33.3375 125.327 33.4619 125.691 33.6877C126.056 33.9078 126.37 34.2119 126.634 34.6003L126.799 31.2479L125.464 30.9223L125.539 29.4016L126.887 29.468L129.41 29.5923L128.833 41.2998L130.03 41.6186L129.955 43.1306L126.559 42.9633L126.426 41.8134ZM123.062 38.3651C123.021 39.183 123.125 39.8348 123.372 40.3205C123.626 40.8007 124.064 41.0561 124.686 41.0868C125.054 41.1049 125.378 41.0458 125.656 40.9094C125.934 40.7729 126.166 40.5679 126.353 40.2941L126.549 36.3283C126.391 36.0203 126.18 35.7789 125.917 35.6043C125.661 35.4242 125.351 35.3252 124.988 35.3073C124.372 35.277 123.909 35.5284 123.6 36.0617C123.29 36.595 123.114 37.3023 123.071 38.1836L123.062 38.3651Z" fill="#E76127"/>
<path d="M134.117 43.8542C132.775 43.7066 131.751 43.1587 131.043 42.2105C130.335 41.2623 130.054 40.1261 130.2 38.8019L130.237 38.458C130.389 37.0764 130.893 35.9802 131.748 35.1692C132.609 34.3588 133.678 34.0268 134.956 34.1732C136.211 34.3114 137.144 34.797 137.755 35.63C138.365 36.463 138.599 37.5244 138.457 38.8142L138.307 40.1815L132.752 39.5702L132.729 39.6199C132.708 40.2383 132.855 40.7652 133.173 41.2004C133.496 41.6364 133.971 41.8887 134.595 41.9575C135.151 42.0186 135.619 42.015 135.998 41.9464C136.377 41.8721 136.798 41.7386 137.26 41.5458L137.769 43.1683C137.352 43.4299 136.825 43.6301 136.189 43.7689C135.558 43.9084 134.868 43.9369 134.117 43.8542ZM134.743 36.108C134.279 36.0569 133.892 36.1942 133.584 36.52C133.275 36.8457 133.058 37.2946 132.931 37.8667L132.952 37.9125L136.03 38.2513L136.055 38.0277C136.113 37.4946 136.034 37.0565 135.816 36.7134C135.605 36.3653 135.248 36.1635 134.743 36.108Z" fill="#E76127"/>
<path d="M138.406 42.704L139.643 42.6503L140.613 36.9272L139.334 36.4475L139.588 34.9463L143.23 35.5631L143.113 36.9295C143.41 36.4885 143.751 36.1632 144.138 35.9537C144.524 35.7443 144.942 35.6776 145.391 35.7537C145.522 35.7758 145.657 35.8103 145.795 35.8571C145.94 35.8992 146.058 35.9427 146.15 35.9875L145.501 38.2114L144.482 38.0125C144.118 37.9509 143.805 37.9709 143.542 38.0726C143.279 38.1743 143.063 38.3454 142.894 38.5858L142.134 43.0721L143.285 43.5302L143.032 45.0228L138.153 44.1966L138.406 42.704Z" fill="#E76127"/>
<defs>
<filter id="filter0_d" x="0.598633" y="0.185425" width="227.027" height="127.603" filterUnits="userSpaceOnUse" color-interpolation-filters="sRGB">
<feFlood flood-opacity="0" result="BackgroundImageFix"/>
<feColorMatrix in="SourceAlpha" type="matrix" values="0 0 0 0 0 0 0 0 0 0 0 0 0 0 0 0 0 0 127 0"/>
<feOffset dy="4"/>
<feGaussianBlur stdDeviation="11.5"/>
<feColorMatrix type="matrix" values="0 0 0 0 0.905882 0 0 0 0 0.380392 0 0 0 0 0.152941 0 0 0 0.3 0"/>
<feBlend mode="normal" in2="BackgroundImageFix" result="effect1_dropShadow"/>
<feBlend mode="normal" in="SourceGraphic" in2="effect1_dropShadow" result="shape"/>
</filter>
</defs>
</svg>
