<svg width="31" height="31" viewBox="0 0 31 31" fill="none" xmlns="http://www.w3.org/2000/svg">
<circle cx="15.6069" cy="15.5132" r="14.7854" fill="#FF8A00"/>
<path fill-rule="evenodd" clip-rule="evenodd" d="M8.85046 9.67985C8.41686 9.67985 8.0588 10.0568 8.0588 10.5132V20.5132C8.0588 20.9696 8.41686 21.3465 8.85046 21.3465H21.5171C21.9507 21.3465 22.3088 20.9696 22.3088 20.5132V10.5132C22.3088 10.0568 21.9507 9.67985 21.5171 9.67985H8.85046ZM6.47546 10.5132C6.47546 9.13628 7.54241 8.01318 8.85046 8.01318H21.5171C22.8252 8.01318 23.8921 9.13628 23.8921 10.5132V20.5132C23.8921 21.8901 22.8252 23.0132 21.5171 23.0132H8.85046C7.54241 23.0132 6.47546 21.8901 6.47546 20.5132V10.5132Z" fill="white"/>
<path fill-rule="evenodd" clip-rule="evenodd" d="M6.61864 10.0352C6.86937 9.65817 7.363 9.56647 7.72119 9.8304L15.1839 15.3292L22.6465 9.8304C23.0047 9.56647 23.4984 9.65817 23.7491 10.0352C23.9998 10.4122 23.9127 10.9319 23.5545 11.1958L15.6379 17.0291C15.3653 17.23 15.0025 17.23 14.7299 17.0291L6.81321 11.1958C6.45502 10.9319 6.36791 10.4122 6.61864 10.0352Z" fill="white"/>
</svg>
