<svg width="31" height="31" viewBox="0 0 31 31" fill="none" xmlns="http://www.w3.org/2000/svg">
<circle cx="15.4749" cy="15.5132" r="14.7854" fill="#FF8A00"/>
<path fill-rule="evenodd" clip-rule="evenodd" d="M22.1679 6.65576C23.3624 6.65576 24.3322 7.62557 24.3322 8.82006V22.2061C24.3322 23.4006 23.3623 24.3704 22.1679 24.3704H8.78185C7.58736 24.3704 6.61755 23.4006 6.61755 22.2061V8.82006C6.61755 7.62557 7.58732 6.65576 8.78185 6.65576H22.1679V6.65576ZM21.4931 11.4069H18.0507L15.5967 17.5283L12.8056 11.4069H9.19451V11.6162L10.3575 13.0172C10.4717 13.1201 10.53 13.2713 10.5145 13.4242V18.9293C10.5483 19.1279 10.4858 19.3308 10.3459 19.4758L9.03753 21.0627V21.272H12.7475V21.0627L11.4391 19.4758C11.2982 19.3311 11.2317 19.1295 11.2588 18.9293V14.1683L14.5152 21.272H14.8932L17.6901 14.1683V19.8304C17.6901 19.9815 17.6901 20.0106 17.5913 20.1094L16.5853 21.0861V21.2953H21.4698V21.0861L20.4987 20.1327C20.413 20.0673 20.3705 19.9599 20.3882 19.8536V12.8486C20.3705 12.7423 20.413 12.6349 20.4987 12.5696L21.4931 11.6162V11.4069V11.4069Z" fill="white"/>
</svg>
