<svg width="30" height="31" viewBox="0 0 30 31" fill="none" xmlns="http://www.w3.org/2000/svg">
<circle cx="15.041" cy="15.5132" r="14.7854" fill="#FF8A00"/>
<g clip-path="url(#clip0)">
<path d="M12.3035 24.7632C10.0285 24.7632 7.666 24.1798 5.566 23.0132C5.216 22.8465 5.041 22.4299 5.1285 22.0965C5.216 21.7632 5.566 21.5132 5.916 21.5132C7.4035 21.5965 8.891 21.2632 10.2035 20.6799C6.966 18.7632 6.091 16.0965 6.0035 14.0132C5.916 11.5965 6.791 9.59652 6.8785 9.51318C6.966 9.26318 7.2285 9.01318 7.5785 9.01318C7.9285 9.01318 8.191 9.09652 8.366 9.34652C9.8535 11.3465 12.1285 12.5965 14.666 12.7632C14.666 11.4299 15.2785 10.1799 16.3285 9.26318C18.166 7.76318 20.8785 7.76318 22.716 9.26318C23.416 9.01318 24.116 8.67985 24.7285 8.26318C24.991 8.09652 25.4285 8.09652 25.691 8.26318C25.9535 8.42985 26.1285 8.84652 26.041 9.17985C25.7785 10.3465 25.166 11.4299 24.291 12.3465C24.291 12.5132 24.291 12.5965 24.291 12.7632C24.291 17.3465 22.191 21.1799 18.4285 23.1799C16.591 24.2632 14.491 24.7632 12.3035 24.7632ZM9.416 22.7632C12.3035 23.4299 15.191 23.0965 17.641 21.7632C20.791 20.0132 22.6285 16.6799 22.6285 12.7632C22.6285 12.5965 22.6285 12.4299 22.541 12.2632C22.4535 12.0132 22.541 11.6799 22.8035 11.5132C22.9785 11.3465 23.1535 11.0965 23.3285 10.9299C23.1535 11.0132 22.891 11.0965 22.716 11.0965C22.366 11.1799 22.016 11.0965 21.841 10.8465C20.7035 9.67985 18.7785 9.51318 17.5535 10.5965C16.766 11.0965 16.416 11.9299 16.416 12.7632V13.5965C16.416 14.0132 16.066 14.4299 15.541 14.4299C12.6535 14.5132 9.941 13.4299 8.016 11.5132C7.491 13.6799 7.316 17.7632 12.391 19.8465C12.6535 20.0132 12.916 20.2632 12.916 20.5965C12.916 20.9299 12.8285 21.1799 12.566 21.3465C11.516 22.0132 10.466 22.5132 9.416 22.7632Z" fill="white"/>
</g>
<defs>
<clipPath id="clip0">
<rect width="21" height="20" fill="white" transform="translate(5.04102 6.51318)"/>
</clipPath>
</defs>
</svg>
